# Blender v2.90.0 OBJ File: 'grass_piece.blend'
# www.blender.org
mtllib grass_piece.mtl
o Cube
v 1.000000 0.096068 -1.000000
v 1.000000 -0.096068 -1.000000
v 1.000000 0.096068 1.000000
v 1.000000 -0.096068 1.000000
v -1.000000 0.096068 -1.000000
v -1.000000 -0.096068 -1.000000
v -1.000000 0.096068 1.000000
v -1.000000 -0.096068 1.000000
vt 0.000167 0.000167
vt 0.333167 0.000167
vt 0.333167 0.333167
vt 0.000167 0.333167
vt 0.000167 0.666500
vt 0.000167 0.333500
vt 0.333167 0.333500
vt 0.333167 0.666500
vt 0.666500 0.333500
vt 0.666500 0.666500
vt 0.333500 0.666500
vt 0.333500 0.333500
vt 0.666833 0.333167
vt 0.666833 0.000167
vt 0.999834 0.000167
vt 0.999834 0.333167
vt 0.666500 0.000167
vt 0.666500 0.333167
vt 0.333500 0.333167
vt 0.333500 0.000167
vn 0.0000 1.0000 0.0000
vn 0.0000 0.0000 1.0000
vn -1.0000 0.0000 0.0000
vn 1.0000 0.0000 0.0000
vn 0.0000 0.0000 -1.0000
usemtl Material
s off
f 1/1/1 5/2/1 7/3/1 3/4/1
f 4/5/2 3/6/2 7/7/2 8/8/2
f 8/9/3 7/10/3 5/11/3 6/12/3
f 2/13/4 1/14/4 3/15/4 4/16/4
f 6/17/5 5/18/5 1/19/5 2/20/5
